<?xml version="1.0" standalone="no"?>
<!DOCTYPE svg PUBLIC "-//W3C//DTD SVG 20010904//EN"
 "http://www.w3.org/TR/2001/REC-SVG-20010904/DTD/svg10.dtd">
<svg version="1.0" xmlns="http://www.w3.org/2000/svg"
 width="2048.000000pt" height="2048.000000pt" viewBox="0 0 2048.000000 2048.000000"
 preserveAspectRatio="xMidYMid meet">
<metadata>
Created by potrace 1.11, written by Peter Selinger 2001-2013
</metadata>
<g transform="translate(0.000000,2048.000000) scale(0.100000,-0.100000)"
fill="#000000" stroke="none">
<path d="M1395 20470 c-378 -23 -705 -180 -977 -469 -223 -237 -339 -466 -396
-781 -16 -89 -17 -634 -17 -8980 0 -8346 1 -8891 17 -8980 40 -222 127 -433
249 -605 78 -110 258 -293 359 -367 215 -157 455 -249 722 -278 137 -14 17640
-14 17776 1 336 36 627 171 871 404 246 235 394 505 458 835 17 92 18 416 21
8910 2 6124 -1 8851 -8 8934 -25 278 -101 497 -254 721 -83 123 -284 323 -406
404 -247 164 -450 233 -745 251 -177 11 -17487 11 -17670 0z m5610 -4899
c1134 -137 1997 -612 2644 -1453 l82 -108 -19 -27 c-33 -48 -188 -324 -241
-430 -366 -733 -572 -1544 -642 -2528 -6 -88 -12 -306 -13 -484 l-1 -324
-2457 -566 c-1999 -460 -2458 -569 -2458 -582 0 -27 87 -359 123 -469 114
-346 292 -695 485 -953 357 -474 870 -815 1464 -972 539 -142 1112 -149 1878
-21 564 94 1128 261 1621 479 l36 16 84 -167 c193 -386 476 -809 752 -1128
l105 -121 -126 -61 c-634 -303 -1319 -514 -2132 -656 -664 -116 -1330 -160
-1890 -126 -927 57 -1721 311 -2415 773 -1036 690 -1755 1905 -2024 3422 -87
487 -122 895 -122 1415 0 563 40 949 152 1475 281 1312 997 2374 2009 2978
585 349 1201 540 2005 622 211 21 261 23 615 19 240 -2 356 -8 485 -23z m7935
-1 c686 -83 1318 -314 1815 -663 174 -123 295 -226 471 -401 503 -501 846
-1114 1080 -1925 142 -495 228 -1107 257 -1833 l5 -108 -32 -8 c-17 -5 -1535
-354 -3373 -778 l-3343 -769 6 -35 c33 -191 158 -587 254 -806 407 -928 1196
-1515 2215 -1649 283 -37 517 -43 820 -20 997 74 2048 382 2750 804 65 39 121
71 124 71 3 0 175 -337 381 -750 330 -661 373 -751 360 -764 -29 -28 -246
-149 -445 -246 -934 -458 -2351 -784 -3550 -816 -344 -9 -769 20 -1115 77
-1006 166 -1854 609 -2524 1319 -506 535 -877 1198 -1120 1997 -229 752 -339
1622 -314 2481 28 991 274 1943 689 2669 94 165 284 447 401 598 110 143 458
495 609 618 588 478 1334 789 2169 906 368 52 496 59 915 55 249 -2 359 -7
495 -24z"/>
<path d="M5990 14038 c-388 -46 -631 -111 -895 -237 -538 -258 -922 -684
-1184 -1314 -125 -302 -219 -694 -263 -1102 -14 -128 -19 -907 -6 -920 5 -6
4847 1090 4904 1109 22 8 -43 416 -107 671 -112 444 -291 816 -534 1110 -321
387 -754 618 -1275 680 -138 17 -514 18 -640 3z"/>
<path d="M13910 14038 c-388 -46 -631 -111 -895 -237 -472 -226 -816 -571
-1069 -1071 -211 -416 -320 -810 -378 -1370 -14 -135 -19 -883 -6 -896 6 -5
4846 1090 4904 1110 13 5 -12 213 -51 416 -130 676 -373 1176 -743 1532 -175
167 -400 310 -622 393 -130 48 -360 104 -499 121 -130 15 -521 17 -641 2z"/>
</g>
</svg>
