<svg xmlns="http://www.w3.org/2000/svg" xmlns:xlink="http://www.w3.org/1999/xlink">
  <defs/>
  <g>
    <path stroke="none" fill="#FFFFFF" d="M14.85 46.85 L14.85 34.75 25.6 34.75 25.6 20.15 41.35 15.25 41.35 34.75 56.4 34.75 56.4 46.85 41.35 46.85 41.35 104.8 Q41.35 107.9 42.55 110.15 43.9 112.7 46.55 113.8 48.9 114.8 51.95 114.8 55 114.8 57.4 113.8 L57.4 127.2 Q53.8 128.85 47.35 128.95 36.45 128.95 30.9 122.75 25.6 116.8 25.6 105.7 L25.6 46.85 14.85 46.85"/>
    <path stroke="none" fill="#FFFFFF" d="M159.05 48.55 L175.1 48.55 151.55 127.9 134.9 127.9 120.75 77.55 Q119.35 72.35 118.6 67.15 L118.4 66.1 118.1 66.1 117.95 67.15 Q116.85 73.1 115.6 77.55 L101.5 127.9 84.85 127.9 61.3 48.55 77.35 48.55 91.05 100.95 Q92.6 107.05 93.1 112.3 L93.25 113.5 93.55 113.5 93.75 112.3 Q95 105.5 96.2 100.95 L110.6 48.55 125.8 48.55 140.2 100.95 142.65 112.3 142.85 113.5 143.15 113.5 143.3 112.3 Q143.8 107 145.35 100.95 L159.05 48.55"/>
    <path stroke="none" fill="#FFFFFF" d="M385.1 21.35 L401.7 21.35 401.7 113.95 438.35 113.95 438.35 127.9 385.1 127.9 385.1 21.35"/>
    <path stroke="none" fill="#FFFFFF" d="M449.2 48.55 L465.4 48.55 465.4 127.9 449.2 127.9 449.2 48.55 M466.85 25 Q466.8 28.9 463.95 31.55 461.2 34.1 457.3 34.15 453.35 34.1 450.6 31.55 447.8 28.9 447.7 25 447.8 21.1 450.6 18.5 453.35 15.95 457.3 15.9 461.25 15.95 463.95 18.5 466.8 21.1 466.85 25"/>
    <path stroke="none" fill="#FFFFFF" d="M523.1 66.9 Q519.7 60.7 509.65 59.9 501 59.2 493.75 62.25 L493.75 127.9 477.7 127.9 477.7 52.55 Q492.45 46.45 509.7 46.9 530.5 47.45 537.55 59.1 541.15 65.05 541.15 73.45 L541.15 127.9 524.95 127.9 524.95 74.9 Q524.95 70.25 523.1 66.9"/>
    <path stroke="none" fill="#FFFFFF" d="M584.15 46.95 Q602.05 47 610.55 59.15 618.1 69.95 616.85 87.85 L564.15 95.25 Q565.8 109.35 576.5 114.3 583.25 117.4 593.5 116.5 603.25 115.65 610.35 111.85 L615.05 123.95 Q606.2 128.5 593 129.35 579.75 130.2 570.75 126.65 559.2 122 553.45 111.15 548.4 101.55 548.4 88.15 548.45 70.55 557.15 59.35 566.8 47 584.15 46.95 M597.35 64.75 Q592.8 58.75 583.85 58.75 573.4 58.75 567.95 66.85 563.35 73.65 563.1 84.65 L601.5 79.35 Q601.4 70.05 597.35 64.75"/>
    <path stroke="none" fill="#FFBA75" d="M179.1 60.4 Q187.6 47.4 204.8 45.8 213.85 45.05 221.05 47.85 228.9 50.85 233.85 57.85 229.95 64.1 228.25 71.7 L228.25 71.75 Q226.6 79 226.9 86.95 L189.05 95.65 Q191.15 105.85 197.85 110.85 204.6 115.9 215.1 114.95 224.45 114.15 232.2 110.55 235.05 116.75 239.4 121.45 230.7 125.85 219.3 127.35 207.15 129 198.35 126.35 186.4 122.75 179.75 112.4 173.9 103.3 172.75 90 171.3 72.3 179.1 60.4 M205.5 57.55 Q195.1 58.5 190.4 67.05 186.4 74.25 187.1 85.2 L224.9 76.55 Q223.95 67.35 219.55 62.4 214.45 56.75 205.5 57.55"/>
    <path stroke="none" fill="#FF7E00" d="M265.65 45.8 Q275.3 45 282.85 48.2 291 51.7 295.85 59.6 301.5 68.85 301.75 83.75 L249.9 95.65 Q252.05 105.85 258.8 110.85 265.55 115.85 275.95 114.95 281.55 114.5 287.1 112.8 293.15 110.95 297.4 108.2 L303.15 119.8 Q297.95 123.1 290.05 125.3 283.2 127.2 276.05 127.8 257.3 129.4 246.05 118.95 235.25 108.95 233.6 90 232.15 72.3 239.95 60.4 248.45 47.4 265.65 45.8 M280.4 62.4 Q275.3 56.75 266.35 57.55 255.95 58.5 251.25 67.05 247.25 74.25 247.95 85.2 L285.75 76.55 Q284.8 67.35 280.4 62.4"/>
    <path stroke="none" fill="#FFFFFF" d="M354.95 66.9 Q351.55 60.7 341.5 59.9 332.85 59.2 325.6 62.25 L325.6 127.9 309.6 127.9 309.6 52.55 Q324.3 46.45 341.55 46.9 362.35 47.45 369.4 59.1 373 65.05 373 73.45 L373 127.9 356.85 127.9 356.85 74.9 Q356.85 70.3 354.95 66.9"/>
  </g>
</svg>